<svg xmlns="http://www.w3.org/2000/svg" xmlns:xlink="http://www.w3.org/1999/xlink" width="22" height="22" viewBox="0 0 22 22">
  <defs>
    <clipPath id="clip-path">
      <rect id="Rectangle_186" data-name="Rectangle 186" width="12" height="18" transform="translate(0.337 -0.079)" fill="#fff"/>
    </clipPath>
  </defs>
  <g id="Group_600" data-name="Group 600" transform="translate(-881.595 -708.592)">
    <g id="Group_614" data-name="Group 614" transform="translate(879.004 706)">
      <rect id="Rectangle_188" data-name="Rectangle 188" width="22" height="22" rx="4" transform="translate(2.592 2.592)" fill="#d11419"/>
      <g id="Group_529" data-name="Group 529" transform="translate(7.255 5.671)">
        <g id="Group_528" data-name="Group 528" transform="translate(0 0)" clip-path="url(#clip-path)">
          <path id="Path_51" data-name="Path 51" d="M136.019,117.562l3.527,2.644-3.51,2.633v-1.924h-3.5v-1.4h3.48Z" transform="translate(-126.941 -112.123)" fill="#fff"/>
          <path id="Path_52" data-name="Path 52" d="M11.244,1.561c-.012.457-.014.915-.012,1.372,0,.522.007,1.045.007,1.568v.247L9.828,3.7V2.933h0c0-.432,0-.864,0-1.3V1.426H1.422V12.611H9.83v-.726c0-.259,0-.519,0-.779h0v-.764l1.41-1.051v1.815q0,.739,0,1.478a1.4,1.4,0,0,1-1.1,1.408,1.956,1.956,0,0,1-.443.039c-2.717,0-5.435-.01-8.152.008A1.483,1.483,0,0,1,0,12.492c.015-3.666.006-7.331.007-11A1.407,1.407,0,0,1,1.1.047,1.978,1.978,0,0,1,1.542.008C4.259.005,6.977.018,9.694,0a1.474,1.474,0,0,1,1.55,1.561" transform="translate(0.666 1.064)" fill="#fff"/>
        </g>
      </g>
    </g>
  </g>
</svg>
