<svg id="Group_605" data-name="Group 605" xmlns="http://www.w3.org/2000/svg" width="78.719" height="37.592" viewBox="0 0 78.719 37.592">
  <path id="Path_132" data-name="Path 132" d="M47.873,77.012V76.43h.043q.653,0,.909-.858l.6.09a1.817,1.817,0,0,1-.54,1.009,1.424,1.424,0,0,1-.969.34Zm0-2h0v-.582h.955a1.6,1.6,0,0,0-.231-.809.847.847,0,0,0-.713-.39h-.011v-.582h.015A1.364,1.364,0,0,1,49,73.206a2.548,2.548,0,0,1,.444,1.616l0,.189Zm2.455.66h0l.574-.11a1.031,1.031,0,0,0,.279.655.983.983,0,0,0,1.189.028.612.612,0,0,0,.207-.474.462.462,0,0,0-.178-.387,2.239,2.239,0,0,0-.589-.235,4.274,4.274,0,0,1-.9-.354.993.993,0,0,1-.354-.389,1.2,1.2,0,0,1-.125-.554,1.166,1.166,0,0,1,.341-.87,1.3,1.3,0,0,1,.949-.334,1.548,1.548,0,0,1,.67.139,1.064,1.064,0,0,1,.443.369,1.616,1.616,0,0,1,.212.664l-.567.1a.677.677,0,0,0-.743-.684.879.879,0,0,0-.563.151.48.48,0,0,0-.183.387.437.437,0,0,0,.175.366,3.143,3.143,0,0,0,.63.251,5.006,5.006,0,0,1,.933.368.936.936,0,0,1,.33.37,1.236,1.236,0,0,1,.118.556,1.294,1.294,0,0,1-.38.967,1.427,1.427,0,0,1-1.036.369,1.348,1.348,0,0,1-1.428-1.345Zm-2.455-3.024h0v.582a.847.847,0,0,0-.653.325,1.409,1.409,0,0,0-.3.874h.955v.582h-.991a1.813,1.813,0,0,0,.326,1.061.889.889,0,0,0,.665.358v.582a1.444,1.444,0,0,1-1.139-.551,2.48,2.48,0,0,1-.449-1.595,2.593,2.593,0,0,1,.453-1.649,1.413,1.413,0,0,1,1.135-.569Zm-6.009,5.965h0v-.588a.892.892,0,0,0,.533-.181.945.945,0,0,0,.309-.545,5.237,5.237,0,0,0,.051-.927,1.345,1.345,0,0,1-.424.408,1.012,1.012,0,0,1-.469.137v-.586a.813.813,0,0,0,.664-.369,1.988,1.988,0,0,0,.275-1.176,1.964,1.964,0,0,0-.283-1.169.838.838,0,0,0-.656-.383v-.586a1.039,1.039,0,0,1,.5.149,1.372,1.372,0,0,1,.443.448v-.5h.534v3.609a4.248,4.248,0,0,1-.157,1.374,1.33,1.33,0,0,1-.514.648,1.489,1.489,0,0,1-.807.238Zm2.754-6.644h0v-.815H45.2v.815Zm0,4.95h0V72.743H45.2v4.175Zm-2.754-4.269h0v.586h-.032a.779.779,0,0,0-.634.384,1.964,1.964,0,0,0-.273,1.138,2.081,2.081,0,0,0,.271,1.2.8.8,0,0,0,.665.377h0v.586h-.055a1.243,1.243,0,0,1-1.019-.52,2.547,2.547,0,0,1-.464-1.6,3.112,3.112,0,0,1,.205-1.176,1.622,1.622,0,0,1,.537-.739,1.259,1.259,0,0,1,.745-.236Zm0,5.376h0v.588h-.055a1.385,1.385,0,0,1-1.023-.359,1.3,1.3,0,0,1-.347-.99l.567.1a.727.727,0,0,0,.236.5.832.832,0,0,0,.546.162l.075,0Zm-3.993-1.012h0v-.582h.015a.853.853,0,0,0,.7-.4,2.6,2.6,0,0,0,0-2.4.886.886,0,0,0-.716-.395v-.587h0a1.432,1.432,0,0,1,1.143.551,2.408,2.408,0,0,1,.46,1.588,2.6,2.6,0,0,1-.452,1.675,1.424,1.424,0,0,1-1.151.551Zm0-4.365h0v.587h-.016a.856.856,0,0,0-.7.4,2.618,2.618,0,0,0,0,2.4.883.883,0,0,0,.716.4v.582a1.428,1.428,0,0,1-1.146-.552,3.139,3.139,0,0,1,0-3.262A1.425,1.425,0,0,1,37.871,72.648Zm-5.93,4.365h0v-.582h.015a.851.851,0,0,0,.7-.4,2.594,2.594,0,0,0,0-2.4.885.885,0,0,0-.715-.395v-.587h0a1.431,1.431,0,0,1,1.143.551,2.407,2.407,0,0,1,.461,1.588,2.6,2.6,0,0,1-.453,1.675A1.423,1.423,0,0,1,31.941,77.013Zm2.664-.094h0V71.154h.577v5.765Zm-2.664-4.271h0v.587h-.016a.857.857,0,0,0-.7.4,2.621,2.621,0,0,0,0,2.4.885.885,0,0,0,.717.4v.582a1.429,1.429,0,0,1-1.146-.552,3.138,3.138,0,0,1,0-3.262A1.426,1.426,0,0,1,31.941,72.648Zm-15.9,4.364h0V76.43h.043q.653,0,.909-.858l.6.09a1.821,1.821,0,0,1-.541,1.009,1.422,1.422,0,0,1-.969.34Zm0-2h0v-.582H17a1.592,1.592,0,0,0-.231-.809.845.845,0,0,0-.713-.39h-.011v-.582h.015a1.364,1.364,0,0,1,1.109.558,2.548,2.548,0,0,1,.444,1.616l0,.189Zm4.921.377h0l.57.091a1.9,1.9,0,0,1-.494,1.14,1.294,1.294,0,0,1-.949.393,1.352,1.352,0,0,1-1.107-.552,2.608,2.608,0,0,1-.434-1.635,2.566,2.566,0,0,1,.439-1.633,1.386,1.386,0,0,1,1.126-.545,1.283,1.283,0,0,1,.9.33,1.629,1.629,0,0,1,.466.992l-.562.106a1.22,1.22,0,0,0-.287-.635.656.656,0,0,0-.491-.211.849.849,0,0,0-.71.38,2.044,2.044,0,0,0-.281,1.205,2.188,2.188,0,0,0,.27,1.234.813.813,0,0,0,.69.381.74.74,0,0,0,.564-.253A1.388,1.388,0,0,0,20.963,75.388Zm1.453,1.53h0V71.154h.578v2.068a1.457,1.457,0,0,1,.462-.431,1.156,1.156,0,0,1,.569-.143,1.111,1.111,0,0,1,.863.349,1.923,1.923,0,0,1,.317,1.275v2.647h-.579V74.272a1.234,1.234,0,0,0-.193-.778.646.646,0,0,0-.53-.236.826.826,0,0,0-.643.3,1.648,1.648,0,0,0-.266,1.074v2.285Zm4.068,0h0V72.743h.523v.593a1.364,1.364,0,0,1,.462-.517,1.161,1.161,0,0,1,.628-.172,1.2,1.2,0,0,1,.509.109,1.048,1.048,0,0,1,.377.284,1.142,1.142,0,0,1,.215.454,3.821,3.821,0,0,1,.071.858v2.568h-.583V74.378a2.057,2.057,0,0,0-.079-.672.653.653,0,0,0-.632-.444.807.807,0,0,0-.664.311,1.741,1.741,0,0,0-.248,1.066v2.281Zm-14.235,0h0V71.835H10.692v-.681h3.747v.681H12.874v5.084Zm3.793-4.271h0v.582a.846.846,0,0,0-.653.325,1.412,1.412,0,0,0-.3.874h.955v.582h-.991a1.809,1.809,0,0,0,.326,1.061.889.889,0,0,0,.665.358v.582a1.443,1.443,0,0,1-1.139-.551,2.477,2.477,0,0,1-.45-1.595,2.6,2.6,0,0,1,.454-1.649A1.412,1.412,0,0,1,16.042,72.648Z" transform="translate(-7.239 -48.171)" fill="#a89044"/>
  <path id="Path_133" data-name="Path 133" d="M28.447,25.123h0l4.224-.263a2.972,2.972,0,0,0,.415,1.56,2.118,2.118,0,0,0,1.871.865,2.323,2.323,0,0,0,1.5-.443,1.478,1.478,0,0,0,.6-1.028,1.193,1.193,0,0,0-.4-.994,5.138,5.138,0,0,0-2.187-.828,8.74,8.74,0,0,1-3.985-1.733,3.2,3.2,0,0,1-1-2.757,4.062,4.062,0,0,1,.826-2.082,4.827,4.827,0,0,1,2.057-1.54,9.376,9.376,0,0,1,3.562-.559,6.748,6.748,0,0,1,4.086,1.018,3.976,3.976,0,0,1,1.419,3.239l-4.182.243a2.022,2.022,0,0,0-.573-1.4,2.084,2.084,0,0,0-1.424-.435,1.882,1.882,0,0,0-1.19.326,1.109,1.109,0,0,0-.46.795.724.724,0,0,0,.264.612,3.317,3.317,0,0,0,1.436.525,17.024,17.024,0,0,1,4.03,1.264A3.563,3.563,0,0,1,41.4,25.2a4.908,4.908,0,0,1-.989,2.531,5.378,5.378,0,0,1-2.283,1.76,8.987,8.987,0,0,1-3.493.6q-3.641,0-4.919-1.4A5.045,5.045,0,0,1,28.447,25.123Zm15.792-9.558h4.413l-.449,5h4.826l.449-5H57.91L56.627,29.849H52.195l.518-5.777H47.888l-.519,5.777H42.956Zm-30.42,0h1.723l-1.723,2.271Zm6.5,11.926V24.4h1.575l-1.119-5.135-.456,1.153V15.565h3.242l4.089,14.284H23.026l-.49-2.358Zm0-11.926h-1.57L13.818,26.147v3.7H16.6l.9-2.358h2.807V24.4H18.74l1.575-3.982ZM0,15.565H4.9l2.451,4.823,3.316-4.823h3.149v2.271l-4.576,6.03-.537,5.983H4.282l.537-5.983ZM13.818,26.147h0l-1.723,3.7h1.723Z" transform="translate(0 -10.368)" fill="#e23827"/>
  <path id="Path_134" data-name="Path 134" d="M48.9,16.043l4.089,14.286H48.374l-.491-2.358H45.661V24.88h1.576l-1.121-5.136L45.661,20.9V16.043ZM44.088,24.88,45.661,20.9V16.043h-1.57L39.166,26.628v3.7h2.787l.9-2.358h2.807V24.88Zm-6.647,5.449h1.725v-3.7Z" transform="translate(-25.348 -10.861)" fill="#e23827"/>
  <path id="Path_135" data-name="Path 135" d="M88.87,6.4c9.585.244,21.61,2.191,22.251,8.9,1.167,12.229-29.332,22.748-46.791,26.418,16.055-2.2,33.722-6.811,47.706-15.41,6.174-3.8,11.385-9.707,8.149-14.31C115.239,4.957,96.256,5.97,88.87,6.4Z" transform="translate(-43.552 -4.122)" fill="#005ba1" fill-rule="evenodd"/>
  <path id="Path_136" data-name="Path 136" d="M232.315,1.839a1.841,1.841,0,1,1,1.84,1.84A1.841,1.841,0,0,1,232.315,1.839Zm3.382,0a1.54,1.54,0,1,0-.452,1.092A1.541,1.541,0,0,0,235.7,1.839ZM234.73,2.95l-.576-.974h-.328V2.95H233.5V.682h.581q.818,0,.819.628a.629.629,0,0,1-.44.617l.62,1.023Zm-.9-1.99v.754c.027,0,.1.005.213.005a.775.775,0,0,0,.426-.08.362.362,0,0,0,.109-.307q0-.374-.491-.374h-.128Z" transform="translate(-157.278 0)" fill="#231f20"/>
  <rect id="Rectangle_207" data-name="Rectangle 207" width="1.413" height="3.068" transform="translate(19.9 14.031)" fill="#e23827"/>
</svg>
