<svg xmlns="http://www.w3.org/2000/svg" width="16.189" height="16.202" viewBox="0 0 16.189 16.202">
  <g id="Group_664" data-name="Group 664" transform="translate(324.99 -252.661)">
    <path id="Path_156" data-name="Path 156" d="M-323.277,317.011c-.505,0-1.011-.006-1.516,0-.156,0-.2-.042-.2-.2q.01-1.531,0-3.062a.4.4,0,0,1,.148-.3q4.742-4.739,9.48-9.482c.124-.124.192-.168.342-.016q1.533,1.557,3.089,3.091c.123.122.145.185.008.321q-4.769,4.754-9.525,9.52a.394.394,0,0,1-.311.126C-322.266,317.008-322.771,317.011-323.277,317.011Z" transform="translate(0 -48.152)" fill="#d11419"/>
    <path id="Path_157" data-name="Path 157" d="M-132.74,255.707a.82.82,0,0,1-.262.639c-.431.436-.869.865-1.3,1.306-.117.121-.18.087-.28-.014q-1.559-1.568-3.128-3.125c-.13-.128-.1-.191.013-.3.418-.407.824-.827,1.241-1.235a.856.856,0,0,1,1.331,0c.7.695,1.4,1.4,2.1,2.1A.845.845,0,0,1-132.74,255.707Z" transform="translate(-176.063 0)" fill="#d11419"/>
  </g>
</svg>
