<svg xmlns="http://www.w3.org/2000/svg" width="22.011" height="22.011" viewBox="0 0 22.011 22.011">
  <g id="Group_616" data-name="Group 616" transform="translate(-329.583 -695.508)">
    <path id="Path_143" data-name="Path 143" d="M12.474,26.011l-.55-3.467a7.363,7.363,0,0,1-1.1-.523,7.567,7.567,0,0,1-1.018-.688L6.559,22.82,4,18.307l2.972-2.174A3.273,3.273,0,0,1,6.9,15.57q-.014-.316-.014-.564t.014-.564a3.273,3.273,0,0,1,.069-.564L4,11.7,6.559,7.192,9.805,8.677a7.567,7.567,0,0,1,1.018-.688,5.7,5.7,0,0,1,1.1-.5L12.474,4h5.063l.55,3.467a8.944,8.944,0,0,1,1.114.509,4.718,4.718,0,0,1,1,.7l3.247-1.486L26.011,11.7,23.04,13.823a3.877,3.877,0,0,1,.069.592c.009.211.014.408.014.592s0,.376-.014.578a3.826,3.826,0,0,1-.069.578l2.972,2.146L23.452,22.82l-3.247-1.486a9.177,9.177,0,0,1-1,.7,4.78,4.78,0,0,1-1.114.509l-.55,3.467Zm2.531-7.429a3.57,3.57,0,0,0,3.577-3.577,3.57,3.57,0,0,0-3.577-3.577,3.57,3.57,0,0,0-3.577,3.577,3.57,3.57,0,0,0,3.577,3.577Z" transform="translate(325.583 691.508)" fill="#d11419"/>
  </g>
</svg>
