<svg xmlns="http://www.w3.org/2000/svg" width="24.149" height="19.717" viewBox="0 0 24.149 19.717">
  <g id="Group_629" data-name="Group 629" transform="translate(454.765 -266.997)">
    <path id="Path_144" data-name="Path 144" d="M-438.3,284.542v2.172h-8.774v-2.172h-.453c-1.62,0-3.239,0-4.859,0a2.2,2.2,0,0,1-2.38-2.386q0-6.389,0-12.779A2.209,2.209,0,0,1-452.37,267h19.359a2.208,2.208,0,0,1,2.392,2.38q.005,6.389,0,12.779A2.2,2.2,0,0,1-433,284.541c-1.607,0-3.214,0-4.821,0Zm5.46-15.32h-19.709v13.113h19.709Z" transform="translate(0)" fill="#d11419"/>
  </g>
</svg>
